<svg xmlns="http://www.w3.org/2000/svg" width="24" height="24" viewBox="0 0 24 24" fill="none">
  <path d="M11.995 0C10.598 2.04 9.657 3.382 8.373 5.333C8.93 6.067 9.621 6.889 10.834 7.772C9.669 7.324 8.829 6.851 8.175 6.345C6.564 8.838 4.099 12.523 0 24C3.252 21.858 5.776 20.462 8.135 19.803C8.037 19.358 7.985 18.882 7.989 18.386L7.992 18.285C8.047 16.144 9.187 14.471 10.522 14.588C11.857 14.706 12.958 16.562 12.903 18.704C12.891 19.155 12.835 19.585 12.744 19.98C15.072 20.653 17.564 22.045 20.765 24C20.149 22.527 19.593 21.195 19.061 19.925C18.291 19.373 17.494 18.676 15.852 17.861C17.171 18.115 18.145 18.499 18.938 18.947C12.348 5.744 11.995 0 11.995 0Z" fill="#1793D1"/>
</svg> 